<mxfile host="app.diagrams.net" modified="2023-09-20T07:28:48.403Z" agent="Mozilla/5.0 (Windows NT 10.0; Win64; x64) AppleWebKit/537.36 (KHTML, like Gecko) Chrome/115.0.0.0 Safari/537.36 OPR/101.0.0.0" etag="2ImvKY5IEKtSV9kmc41U" version="21.7.5" type="device">
  <diagram name="Страница — 1" id="uToYVatRJV8wEDFPy25G">
    <mxGraphModel dx="1331" dy="837" grid="1" gridSize="10" guides="1" tooltips="1" connect="1" arrows="1" fold="1" page="1" pageScale="1" pageWidth="827" pageHeight="1169" math="0" shadow="0">
      <root>
        <mxCell id="0" />
        <mxCell id="1" parent="0" />
        <mxCell id="W7pRYqL_9WnUPg5IFOV3-35" value="" style="rounded=0;whiteSpace=wrap;html=1;fillColor=none;" parent="1" vertex="1">
          <mxGeometry x="280" y="60" width="320" height="580" as="geometry" />
        </mxCell>
        <mxCell id="W7pRYqL_9WnUPg5IFOV3-4" value="Надсилання та&lt;br&gt;отримання повідомлення&lt;br&gt;про температуру&amp;nbsp;" style="ellipse;whiteSpace=wrap;html=1;" parent="1" vertex="1">
          <mxGeometry x="350" y="80" width="180" height="60" as="geometry" />
        </mxCell>
        <mxCell id="W7pRYqL_9WnUPg5IFOV3-6" value="Аналіз&lt;br&gt;наданої інформації" style="ellipse;whiteSpace=wrap;html=1;" parent="1" vertex="1">
          <mxGeometry x="350" y="320" width="180" height="60" as="geometry" />
        </mxCell>
        <mxCell id="W7pRYqL_9WnUPg5IFOV3-9" value="Надсилання та отримання&lt;br&gt;повідомлення про можливу&lt;br&gt;роздратованість" style="ellipse;whiteSpace=wrap;html=1;" parent="1" vertex="1">
          <mxGeometry x="345" y="200" width="190" height="60" as="geometry" />
        </mxCell>
        <mxCell id="W7pRYqL_9WnUPg5IFOV3-11" value="Додаток" style="shape=umlActor;verticalLabelPosition=bottom;verticalAlign=top;html=1;outlineConnect=0;" parent="1" vertex="1">
          <mxGeometry x="670" y="245" width="30" height="60" as="geometry" />
        </mxCell>
        <mxCell id="W7pRYqL_9WnUPg5IFOV3-14" value="Надання технічних&lt;br&gt;питань та відповідей на них" style="ellipse;whiteSpace=wrap;html=1;" parent="1" vertex="1">
          <mxGeometry x="350" y="440" width="180" height="60" as="geometry" />
        </mxCell>
        <mxCell id="W7pRYqL_9WnUPg5IFOV3-15" value="Споживач" style="shape=umlActor;verticalLabelPosition=bottom;verticalAlign=top;html=1;outlineConnect=0;" parent="1" vertex="1">
          <mxGeometry x="160" y="245" width="30" height="60" as="geometry" />
        </mxCell>
        <mxCell id="LoCAGWstbFeR2XyMyLZT-3" style="edgeStyle=orthogonalEdgeStyle;rounded=0;orthogonalLoop=1;jettySize=auto;html=1;" edge="1" parent="1">
          <mxGeometry relative="1" as="geometry">
            <mxPoint x="190" y="530" as="targetPoint" />
            <mxPoint x="680" y="500" as="sourcePoint" />
            <Array as="points">
              <mxPoint x="680" y="680" />
              <mxPoint x="190" y="680" />
            </Array>
          </mxGeometry>
        </mxCell>
        <mxCell id="W7pRYqL_9WnUPg5IFOV3-17" value="Тех. підтримка" style="shape=umlActor;verticalLabelPosition=bottom;verticalAlign=top;html=1;outlineConnect=0;" parent="1" vertex="1">
          <mxGeometry x="670" y="405" width="30" height="60" as="geometry" />
        </mxCell>
        <mxCell id="W7pRYqL_9WnUPg5IFOV3-18" value="" style="endArrow=classic;html=1;rounded=0;entryX=0;entryY=0.5;entryDx=0;entryDy=0;" parent="1" target="W7pRYqL_9WnUPg5IFOV3-14" edge="1">
          <mxGeometry width="50" height="50" relative="1" as="geometry">
            <mxPoint x="200" y="280" as="sourcePoint" />
            <mxPoint x="400" y="370" as="targetPoint" />
          </mxGeometry>
        </mxCell>
        <mxCell id="W7pRYqL_9WnUPg5IFOV3-19" value="" style="endArrow=classic;html=1;rounded=0;" parent="1" target="W7pRYqL_9WnUPg5IFOV3-14" edge="1">
          <mxGeometry width="50" height="50" relative="1" as="geometry">
            <mxPoint x="670" y="440" as="sourcePoint" />
            <mxPoint x="640" y="430" as="targetPoint" />
          </mxGeometry>
        </mxCell>
        <mxCell id="W7pRYqL_9WnUPg5IFOV3-20" value="" style="endArrow=classic;html=1;rounded=0;entryX=0;entryY=0.5;entryDx=0;entryDy=0;" parent="1" target="W7pRYqL_9WnUPg5IFOV3-6" edge="1">
          <mxGeometry width="50" height="50" relative="1" as="geometry">
            <mxPoint x="200" y="280" as="sourcePoint" />
            <mxPoint x="400" y="370" as="targetPoint" />
          </mxGeometry>
        </mxCell>
        <mxCell id="W7pRYqL_9WnUPg5IFOV3-22" value="" style="endArrow=classic;html=1;rounded=0;entryX=1;entryY=0.5;entryDx=0;entryDy=0;" parent="1" target="W7pRYqL_9WnUPg5IFOV3-9" edge="1">
          <mxGeometry width="50" height="50" relative="1" as="geometry">
            <mxPoint x="660" y="270" as="sourcePoint" />
            <mxPoint x="400" y="370" as="targetPoint" />
          </mxGeometry>
        </mxCell>
        <mxCell id="W7pRYqL_9WnUPg5IFOV3-23" value="" style="endArrow=classic;html=1;rounded=0;entryX=1;entryY=0.5;entryDx=0;entryDy=0;" parent="1" target="W7pRYqL_9WnUPg5IFOV3-4" edge="1">
          <mxGeometry width="50" height="50" relative="1" as="geometry">
            <mxPoint x="660" y="270" as="sourcePoint" />
            <mxPoint x="400" y="370" as="targetPoint" />
          </mxGeometry>
        </mxCell>
        <mxCell id="W7pRYqL_9WnUPg5IFOV3-28" value="" style="endArrow=classic;html=1;rounded=0;exitX=0.5;exitY=0;exitDx=0;exitDy=0;entryX=0.5;entryY=1;entryDx=0;entryDy=0;dashed=1;" parent="1" source="W7pRYqL_9WnUPg5IFOV3-6" target="W7pRYqL_9WnUPg5IFOV3-9" edge="1">
          <mxGeometry width="50" height="50" relative="1" as="geometry">
            <mxPoint x="350" y="330" as="sourcePoint" />
            <mxPoint x="400" y="280" as="targetPoint" />
          </mxGeometry>
        </mxCell>
        <mxCell id="W7pRYqL_9WnUPg5IFOV3-29" value="&amp;lt;&amp;lt;include&amp;gt;&amp;gt;" style="text;html=1;strokeColor=none;fillColor=none;align=center;verticalAlign=middle;whiteSpace=wrap;rounded=0;" parent="1" vertex="1">
          <mxGeometry x="450" y="275" width="60" height="30" as="geometry" />
        </mxCell>
        <mxCell id="W7pRYqL_9WnUPg5IFOV3-33" value="" style="endArrow=classic;html=1;rounded=0;dashed=1;entryX=0.5;entryY=1;entryDx=0;entryDy=0;exitX=0.5;exitY=0;exitDx=0;exitDy=0;" parent="1" source="W7pRYqL_9WnUPg5IFOV3-9" target="W7pRYqL_9WnUPg5IFOV3-4" edge="1">
          <mxGeometry width="50" height="50" relative="1" as="geometry">
            <mxPoint x="400" y="180" as="sourcePoint" />
            <mxPoint x="420" y="160" as="targetPoint" />
          </mxGeometry>
        </mxCell>
        <mxCell id="W7pRYqL_9WnUPg5IFOV3-34" value="&amp;lt;&amp;lt;include&amp;gt;&amp;gt;" style="text;html=1;strokeColor=none;fillColor=none;align=center;verticalAlign=middle;whiteSpace=wrap;rounded=0;" parent="1" vertex="1">
          <mxGeometry x="450" y="159" width="60" height="30" as="geometry" />
        </mxCell>
        <mxCell id="8mLdY0lilE7GSzzpo-wA-1" value="" style="endArrow=classic;html=1;rounded=0;entryX=0;entryY=0.5;entryDx=0;entryDy=0;" parent="1" target="W7pRYqL_9WnUPg5IFOV3-9" edge="1">
          <mxGeometry width="50" height="50" relative="1" as="geometry">
            <mxPoint x="200" y="280" as="sourcePoint" />
            <mxPoint x="470" y="360" as="targetPoint" />
          </mxGeometry>
        </mxCell>
        <mxCell id="8mLdY0lilE7GSzzpo-wA-2" value="" style="endArrow=classic;html=1;rounded=0;entryX=0;entryY=0.5;entryDx=0;entryDy=0;" parent="1" target="W7pRYqL_9WnUPg5IFOV3-4" edge="1">
          <mxGeometry width="50" height="50" relative="1" as="geometry">
            <mxPoint x="200" y="280" as="sourcePoint" />
            <mxPoint x="470" y="360" as="targetPoint" />
          </mxGeometry>
        </mxCell>
        <mxCell id="LoCAGWstbFeR2XyMyLZT-1" value="Користувач" style="shape=umlActor;verticalLabelPosition=bottom;verticalAlign=top;html=1;outlineConnect=0;" vertex="1" parent="1">
          <mxGeometry x="180" y="440" width="30" height="60" as="geometry" />
        </mxCell>
        <mxCell id="LoCAGWstbFeR2XyMyLZT-2" value="" style="endArrow=classic;html=1;rounded=0;entryX=0.5;entryY=0;entryDx=0;entryDy=0;entryPerimeter=0;" edge="1" parent="1" target="LoCAGWstbFeR2XyMyLZT-1">
          <mxGeometry width="50" height="50" relative="1" as="geometry">
            <mxPoint x="180" y="330" as="sourcePoint" />
            <mxPoint x="440" y="410" as="targetPoint" />
          </mxGeometry>
        </mxCell>
        <mxCell id="LoCAGWstbFeR2XyMyLZT-4" value="Авторизація" style="ellipse;whiteSpace=wrap;html=1;" vertex="1" parent="1">
          <mxGeometry x="345" y="560" width="180" height="60" as="geometry" />
        </mxCell>
        <mxCell id="LoCAGWstbFeR2XyMyLZT-6" value="" style="curved=1;endArrow=classic;html=1;rounded=0;exitX=0;exitY=1;exitDx=0;exitDy=0;dashed=1;entryX=0;entryY=0;entryDx=0;entryDy=0;" edge="1" parent="1" source="W7pRYqL_9WnUPg5IFOV3-4" target="LoCAGWstbFeR2XyMyLZT-4">
          <mxGeometry width="50" height="50" relative="1" as="geometry">
            <mxPoint x="390" y="460" as="sourcePoint" />
            <mxPoint x="340" y="590" as="targetPoint" />
            <Array as="points">
              <mxPoint x="300" y="140" />
              <mxPoint x="300" y="540" />
            </Array>
          </mxGeometry>
        </mxCell>
        <mxCell id="LoCAGWstbFeR2XyMyLZT-7" value="&amp;lt;&amp;lt;include&amp;gt;&amp;gt;" style="text;html=1;strokeColor=none;fillColor=none;align=center;verticalAlign=middle;whiteSpace=wrap;rounded=0;" vertex="1" parent="1">
          <mxGeometry x="340" y="510" width="60" height="30" as="geometry" />
        </mxCell>
        <mxCell id="LoCAGWstbFeR2XyMyLZT-8" value="" style="curved=1;endArrow=classic;html=1;rounded=0;exitX=1;exitY=1;exitDx=0;exitDy=0;entryX=1;entryY=0;entryDx=0;entryDy=0;dashed=1;" edge="1" parent="1" source="W7pRYqL_9WnUPg5IFOV3-9" target="LoCAGWstbFeR2XyMyLZT-4">
          <mxGeometry width="50" height="50" relative="1" as="geometry">
            <mxPoint x="390" y="460" as="sourcePoint" />
            <mxPoint x="440" y="410" as="targetPoint" />
            <Array as="points">
              <mxPoint x="570" y="270" />
              <mxPoint x="560" y="569" />
            </Array>
          </mxGeometry>
        </mxCell>
        <mxCell id="LoCAGWstbFeR2XyMyLZT-9" value="&amp;lt;&amp;lt;include&amp;gt;&amp;gt;" style="text;html=1;strokeColor=none;fillColor=none;align=center;verticalAlign=middle;whiteSpace=wrap;rounded=0;" vertex="1" parent="1">
          <mxGeometry x="475" y="520" width="60" height="30" as="geometry" />
        </mxCell>
        <mxCell id="LoCAGWstbFeR2XyMyLZT-10" value="" style="endArrow=classic;html=1;rounded=0;entryX=0;entryY=0.5;entryDx=0;entryDy=0;" edge="1" parent="1" target="LoCAGWstbFeR2XyMyLZT-4">
          <mxGeometry width="50" height="50" relative="1" as="geometry">
            <mxPoint x="210" y="470" as="sourcePoint" />
            <mxPoint x="205" y="450" as="targetPoint" />
          </mxGeometry>
        </mxCell>
        <mxCell id="LoCAGWstbFeR2XyMyLZT-11" value="" style="endArrow=classic;html=1;rounded=0;entryX=1;entryY=0.5;entryDx=0;entryDy=0;" edge="1" parent="1" target="LoCAGWstbFeR2XyMyLZT-4">
          <mxGeometry width="50" height="50" relative="1" as="geometry">
            <mxPoint x="670" y="440" as="sourcePoint" />
            <mxPoint x="533" y="468" as="targetPoint" />
          </mxGeometry>
        </mxCell>
      </root>
    </mxGraphModel>
  </diagram>
</mxfile>
